<mxfile host="app.diagrams.net" agent="Mozilla/5.0 (Windows NT 10.0; Win64; x64) AppleWebKit/537.36 (KHTML, like Gecko) Chrome/131.0.0.0 Safari/537.36" version="25.0.3">
  <diagram name="Página-1" id="EaQdkkGZb9fZ3UfrwTGq">
    <mxGraphModel dx="1764" dy="916" grid="1" gridSize="10" guides="1" tooltips="1" connect="1" arrows="1" fold="1" page="1" pageScale="1" pageWidth="827" pageHeight="1169" math="0" shadow="0">
      <root>
        <mxCell id="0" />
        <mxCell id="1" parent="0" />
        <mxCell id="F50lJ3sI_sSzMT7TP19c-32" value="CALIFICACIONES" style="shape=table;startSize=30;container=1;collapsible=1;childLayout=tableLayout;fixedRows=1;rowLines=0;fontStyle=1;align=center;resizeLast=1;fillColor=#008a00;fontColor=#ffffff;strokeColor=#005700;" vertex="1" parent="1">
          <mxGeometry x="79.85" y="650" width="310" height="150" as="geometry" />
        </mxCell>
        <mxCell id="F50lJ3sI_sSzMT7TP19c-33" value="" style="shape=partialRectangle;collapsible=0;dropTarget=0;pointerEvents=0;fillColor=none;points=[[0,0.5],[1,0.5]];portConstraint=eastwest;top=0;left=0;right=0;bottom=1;" vertex="1" parent="F50lJ3sI_sSzMT7TP19c-32">
          <mxGeometry y="30" width="310" height="30" as="geometry" />
        </mxCell>
        <mxCell id="F50lJ3sI_sSzMT7TP19c-34" value="" style="shape=partialRectangle;overflow=hidden;connectable=0;fillColor=none;top=0;left=0;bottom=0;right=0;fontStyle=1;" vertex="1" parent="F50lJ3sI_sSzMT7TP19c-33">
          <mxGeometry width="30" height="30" as="geometry">
            <mxRectangle width="30" height="30" as="alternateBounds" />
          </mxGeometry>
        </mxCell>
        <mxCell id="F50lJ3sI_sSzMT7TP19c-35" value="" style="shape=partialRectangle;overflow=hidden;connectable=0;fillColor=none;top=0;left=0;bottom=0;right=0;align=left;spacingLeft=6;fontStyle=1;" vertex="1" parent="F50lJ3sI_sSzMT7TP19c-33">
          <mxGeometry x="30" width="280" height="30" as="geometry">
            <mxRectangle width="280" height="30" as="alternateBounds" />
          </mxGeometry>
        </mxCell>
        <mxCell id="F50lJ3sI_sSzMT7TP19c-36" value="" style="shape=partialRectangle;collapsible=0;dropTarget=0;pointerEvents=0;fillColor=none;points=[[0,0.5],[1,0.5]];portConstraint=eastwest;top=0;left=0;right=0;bottom=0;" vertex="1" parent="F50lJ3sI_sSzMT7TP19c-32">
          <mxGeometry y="60" width="310" height="30" as="geometry" />
        </mxCell>
        <mxCell id="F50lJ3sI_sSzMT7TP19c-37" value="" style="shape=partialRectangle;overflow=hidden;connectable=0;fillColor=none;top=0;left=0;bottom=0;right=0;" vertex="1" parent="F50lJ3sI_sSzMT7TP19c-36">
          <mxGeometry width="30" height="30" as="geometry">
            <mxRectangle width="30" height="30" as="alternateBounds" />
          </mxGeometry>
        </mxCell>
        <mxCell id="F50lJ3sI_sSzMT7TP19c-38" value="                    id_estudiante INT" style="shape=partialRectangle;overflow=hidden;connectable=0;fillColor=none;top=0;left=0;bottom=0;right=0;align=left;spacingLeft=6;" vertex="1" parent="F50lJ3sI_sSzMT7TP19c-36">
          <mxGeometry x="30" width="280" height="30" as="geometry">
            <mxRectangle width="280" height="30" as="alternateBounds" />
          </mxGeometry>
        </mxCell>
        <mxCell id="F50lJ3sI_sSzMT7TP19c-39" value="" style="shape=partialRectangle;collapsible=0;dropTarget=0;pointerEvents=0;fillColor=none;points=[[0,0.5],[1,0.5]];portConstraint=eastwest;top=0;left=0;right=0;bottom=0;" vertex="1" parent="F50lJ3sI_sSzMT7TP19c-32">
          <mxGeometry y="90" width="310" height="30" as="geometry" />
        </mxCell>
        <mxCell id="F50lJ3sI_sSzMT7TP19c-40" value="" style="shape=partialRectangle;overflow=hidden;connectable=0;fillColor=none;top=0;left=0;bottom=0;right=0;" vertex="1" parent="F50lJ3sI_sSzMT7TP19c-39">
          <mxGeometry width="30" height="30" as="geometry">
            <mxRectangle width="30" height="30" as="alternateBounds" />
          </mxGeometry>
        </mxCell>
        <mxCell id="F50lJ3sI_sSzMT7TP19c-41" value="                nota REAL NOT NULL" style="shape=partialRectangle;overflow=hidden;connectable=0;fillColor=none;top=0;left=0;bottom=0;right=0;align=left;spacingLeft=6;" vertex="1" parent="F50lJ3sI_sSzMT7TP19c-39">
          <mxGeometry x="30" width="280" height="30" as="geometry">
            <mxRectangle width="280" height="30" as="alternateBounds" />
          </mxGeometry>
        </mxCell>
        <mxCell id="F50lJ3sI_sSzMT7TP19c-66" value="" style="endArrow=none;html=1;rounded=0;exitX=0.001;exitY=0.011;exitDx=0;exitDy=0;exitPerimeter=0;" edge="1" parent="F50lJ3sI_sSzMT7TP19c-32" source="F50lJ3sI_sSzMT7TP19c-39">
          <mxGeometry width="50" height="50" relative="1" as="geometry">
            <mxPoint x="90" y="90" as="sourcePoint" />
            <mxPoint x="310" y="91" as="targetPoint" />
          </mxGeometry>
        </mxCell>
        <mxCell id="F50lJ3sI_sSzMT7TP19c-42" value="CURSOS" style="shape=table;startSize=30;container=1;collapsible=1;childLayout=tableLayout;fixedRows=1;rowLines=0;fontStyle=1;align=center;resizeLast=1;fillColor=#0050ef;strokeColor=#001DBC;fontColor=#ffffff;" vertex="1" parent="1">
          <mxGeometry x="110" y="480" width="250" height="90" as="geometry" />
        </mxCell>
        <mxCell id="F50lJ3sI_sSzMT7TP19c-43" value="" style="shape=partialRectangle;collapsible=0;dropTarget=0;pointerEvents=0;fillColor=none;points=[[0,0.5],[1,0.5]];portConstraint=eastwest;top=0;left=0;right=0;bottom=1;" vertex="1" parent="F50lJ3sI_sSzMT7TP19c-42">
          <mxGeometry y="30" width="250" height="30" as="geometry" />
        </mxCell>
        <mxCell id="F50lJ3sI_sSzMT7TP19c-44" value="PK" style="shape=partialRectangle;overflow=hidden;connectable=0;fillColor=none;top=0;left=0;bottom=0;right=0;fontStyle=1;" vertex="1" parent="F50lJ3sI_sSzMT7TP19c-43">
          <mxGeometry width="30" height="30" as="geometry">
            <mxRectangle width="30" height="30" as="alternateBounds" />
          </mxGeometry>
        </mxCell>
        <mxCell id="F50lJ3sI_sSzMT7TP19c-45" value="      id_curso INT PRIMARY KEY" style="shape=partialRectangle;overflow=hidden;connectable=0;fillColor=none;top=0;left=0;bottom=0;right=0;align=left;spacingLeft=6;fontStyle=1;" vertex="1" parent="F50lJ3sI_sSzMT7TP19c-43">
          <mxGeometry x="30" width="220" height="30" as="geometry">
            <mxRectangle width="220" height="30" as="alternateBounds" />
          </mxGeometry>
        </mxCell>
        <mxCell id="F50lJ3sI_sSzMT7TP19c-46" value="" style="shape=partialRectangle;collapsible=0;dropTarget=0;pointerEvents=0;fillColor=none;points=[[0,0.5],[1,0.5]];portConstraint=eastwest;top=0;left=0;right=0;bottom=0;" vertex="1" parent="F50lJ3sI_sSzMT7TP19c-42">
          <mxGeometry y="60" width="250" height="30" as="geometry" />
        </mxCell>
        <mxCell id="F50lJ3sI_sSzMT7TP19c-47" value="" style="shape=partialRectangle;overflow=hidden;connectable=0;fillColor=none;top=0;left=0;bottom=0;right=0;" vertex="1" parent="F50lJ3sI_sSzMT7TP19c-46">
          <mxGeometry width="30" height="30" as="geometry">
            <mxRectangle width="30" height="30" as="alternateBounds" />
          </mxGeometry>
        </mxCell>
        <mxCell id="F50lJ3sI_sSzMT7TP19c-48" value=" nombre_curso     TEXT NOT NULL" style="shape=partialRectangle;overflow=hidden;connectable=0;fillColor=none;top=0;left=0;bottom=0;right=0;align=left;spacingLeft=6;" vertex="1" parent="F50lJ3sI_sSzMT7TP19c-46">
          <mxGeometry x="30" width="220" height="30" as="geometry">
            <mxRectangle width="220" height="30" as="alternateBounds" />
          </mxGeometry>
        </mxCell>
        <mxCell id="F50lJ3sI_sSzMT7TP19c-49" value="" style="shape=partialRectangle;overflow=hidden;connectable=0;fillColor=none;top=0;left=0;bottom=0;right=0;fontStyle=1;" vertex="1" parent="1">
          <mxGeometry x="499.5" y="500" width="30" height="30" as="geometry">
            <mxRectangle width="30" height="30" as="alternateBounds" />
          </mxGeometry>
        </mxCell>
        <mxCell id="F50lJ3sI_sSzMT7TP19c-65" value="" style="endArrow=none;html=1;rounded=0;" edge="1" parent="1">
          <mxGeometry width="50" height="50" relative="1" as="geometry">
            <mxPoint x="109.85" y="800" as="sourcePoint" />
            <mxPoint x="109.85" y="770" as="targetPoint" />
          </mxGeometry>
        </mxCell>
        <mxCell id="F50lJ3sI_sSzMT7TP19c-67" value="CURSO_PROFESOR" style="shape=table;startSize=30;container=1;collapsible=1;childLayout=tableLayout;fixedRows=1;rowLines=0;fontStyle=1;align=center;resizeLast=1;fillColor=#a20025;fontColor=#ffffff;strokeColor=#6F0000;" vertex="1" parent="1">
          <mxGeometry x="460" y="420" width="319.5" height="180" as="geometry" />
        </mxCell>
        <mxCell id="F50lJ3sI_sSzMT7TP19c-68" value="" style="shape=partialRectangle;collapsible=0;dropTarget=0;pointerEvents=0;fillColor=none;points=[[0,0.5],[1,0.5]];portConstraint=eastwest;top=0;left=0;right=0;bottom=1;" vertex="1" parent="F50lJ3sI_sSzMT7TP19c-67">
          <mxGeometry y="30" width="319.5" height="30" as="geometry" />
        </mxCell>
        <mxCell id="F50lJ3sI_sSzMT7TP19c-69" value="" style="shape=partialRectangle;overflow=hidden;connectable=0;fillColor=none;top=0;left=0;bottom=0;right=0;fontStyle=1;" vertex="1" parent="F50lJ3sI_sSzMT7TP19c-68">
          <mxGeometry width="30" height="30" as="geometry">
            <mxRectangle width="30" height="30" as="alternateBounds" />
          </mxGeometry>
        </mxCell>
        <mxCell id="F50lJ3sI_sSzMT7TP19c-70" value="" style="shape=partialRectangle;overflow=hidden;connectable=0;fillColor=none;top=0;left=0;bottom=0;right=0;align=left;spacingLeft=6;fontStyle=1;" vertex="1" parent="F50lJ3sI_sSzMT7TP19c-68">
          <mxGeometry x="30" width="289.5" height="30" as="geometry">
            <mxRectangle width="289.5" height="30" as="alternateBounds" />
          </mxGeometry>
        </mxCell>
        <mxCell id="F50lJ3sI_sSzMT7TP19c-71" value="" style="shape=partialRectangle;collapsible=0;dropTarget=0;pointerEvents=0;fillColor=none;points=[[0,0.5],[1,0.5]];portConstraint=eastwest;top=0;left=0;right=0;bottom=0;" vertex="1" parent="F50lJ3sI_sSzMT7TP19c-67">
          <mxGeometry y="60" width="319.5" height="30" as="geometry" />
        </mxCell>
        <mxCell id="F50lJ3sI_sSzMT7TP19c-72" value="" style="shape=partialRectangle;overflow=hidden;connectable=0;fillColor=none;top=0;left=0;bottom=0;right=0;" vertex="1" parent="F50lJ3sI_sSzMT7TP19c-71">
          <mxGeometry width="30" height="30" as="geometry">
            <mxRectangle width="30" height="30" as="alternateBounds" />
          </mxGeometry>
        </mxCell>
        <mxCell id="F50lJ3sI_sSzMT7TP19c-73" value="" style="shape=partialRectangle;overflow=hidden;connectable=0;fillColor=none;top=0;left=0;bottom=0;right=0;align=left;spacingLeft=6;" vertex="1" parent="F50lJ3sI_sSzMT7TP19c-71">
          <mxGeometry x="30" width="289.5" height="30" as="geometry">
            <mxRectangle width="289.5" height="30" as="alternateBounds" />
          </mxGeometry>
        </mxCell>
        <mxCell id="F50lJ3sI_sSzMT7TP19c-74" value="" style="shape=partialRectangle;collapsible=0;dropTarget=0;pointerEvents=0;fillColor=none;points=[[0,0.5],[1,0.5]];portConstraint=eastwest;top=0;left=0;right=0;bottom=0;" vertex="1" parent="F50lJ3sI_sSzMT7TP19c-67">
          <mxGeometry y="90" width="319.5" height="30" as="geometry" />
        </mxCell>
        <mxCell id="F50lJ3sI_sSzMT7TP19c-75" value="" style="shape=partialRectangle;overflow=hidden;connectable=0;fillColor=none;top=0;left=0;bottom=0;right=0;" vertex="1" parent="F50lJ3sI_sSzMT7TP19c-74">
          <mxGeometry width="30" height="30" as="geometry">
            <mxRectangle width="30" height="30" as="alternateBounds" />
          </mxGeometry>
        </mxCell>
        <mxCell id="F50lJ3sI_sSzMT7TP19c-76" value="" style="shape=partialRectangle;overflow=hidden;connectable=0;fillColor=none;top=0;left=0;bottom=0;right=0;align=left;spacingLeft=6;" vertex="1" parent="F50lJ3sI_sSzMT7TP19c-74">
          <mxGeometry x="30" width="289.5" height="30" as="geometry">
            <mxRectangle width="289.5" height="30" as="alternateBounds" />
          </mxGeometry>
        </mxCell>
        <mxCell id="F50lJ3sI_sSzMT7TP19c-77" value="" style="endArrow=none;html=1;rounded=0;entryX=1.003;entryY=-0.044;entryDx=0;entryDy=0;entryPerimeter=0;exitX=0;exitY=0.956;exitDx=0;exitDy=0;exitPerimeter=0;" edge="1" parent="F50lJ3sI_sSzMT7TP19c-67" source="F50lJ3sI_sSzMT7TP19c-71" target="F50lJ3sI_sSzMT7TP19c-74">
          <mxGeometry width="50" height="50" relative="1" as="geometry">
            <mxPoint x="30" y="90" as="sourcePoint" />
            <mxPoint x="220" y="90" as="targetPoint" />
          </mxGeometry>
        </mxCell>
        <mxCell id="F50lJ3sI_sSzMT7TP19c-79" value="" style="endArrow=none;html=1;rounded=0;exitX=-0.002;exitY=1.014;exitDx=0;exitDy=0;exitPerimeter=0;" edge="1" parent="F50lJ3sI_sSzMT7TP19c-67" source="F50lJ3sI_sSzMT7TP19c-74">
          <mxGeometry width="50" height="50" relative="1" as="geometry">
            <mxPoint x="29" y="121" as="sourcePoint" />
            <mxPoint x="319.5" y="120" as="targetPoint" />
          </mxGeometry>
        </mxCell>
        <mxCell id="F50lJ3sI_sSzMT7TP19c-78" value="" style="endArrow=none;html=1;rounded=0;" edge="1" parent="1">
          <mxGeometry width="50" height="50" relative="1" as="geometry">
            <mxPoint x="490" y="600" as="sourcePoint" />
            <mxPoint x="490" y="540" as="targetPoint" />
          </mxGeometry>
        </mxCell>
        <mxCell id="F50lJ3sI_sSzMT7TP19c-80" value="" style="endArrow=none;html=1;rounded=0;" edge="1" parent="1">
          <mxGeometry width="50" height="50" relative="1" as="geometry">
            <mxPoint x="460" y="571" as="sourcePoint" />
            <mxPoint x="779.5" y="570" as="targetPoint" />
          </mxGeometry>
        </mxCell>
        <mxCell id="F50lJ3sI_sSzMT7TP19c-81" value="                           id_profesor INT" style="shape=partialRectangle;overflow=hidden;connectable=0;fillColor=none;top=0;left=0;bottom=0;right=0;align=left;spacingLeft=6;fontStyle=0;" vertex="1" parent="1">
          <mxGeometry x="490" y="450" width="220" height="30" as="geometry">
            <mxRectangle width="220" height="30" as="alternateBounds" />
          </mxGeometry>
        </mxCell>
        <mxCell id="F50lJ3sI_sSzMT7TP19c-82" value="            (id_profesor, id_curso) INT PRIMARY KEY" style="shape=partialRectangle;overflow=hidden;connectable=0;fillColor=none;top=0;left=0;bottom=0;right=0;align=left;spacingLeft=6;fontStyle=1;fontSize=10;" vertex="1" parent="1">
          <mxGeometry x="490" y="510" width="290" height="30" as="geometry">
            <mxRectangle width="220" height="30" as="alternateBounds" />
          </mxGeometry>
        </mxCell>
        <mxCell id="F50lJ3sI_sSzMT7TP19c-83" value="PK" style="shape=partialRectangle;overflow=hidden;connectable=0;fillColor=none;top=0;left=0;bottom=0;right=0;fontStyle=1;" vertex="1" parent="1">
          <mxGeometry x="460" y="510" width="30" height="30" as="geometry">
            <mxRectangle width="30" height="30" as="alternateBounds" />
          </mxGeometry>
        </mxCell>
        <mxCell id="F50lJ3sI_sSzMT7TP19c-85" value="FK1" style="shape=partialRectangle;overflow=hidden;connectable=0;fillColor=none;top=0;left=0;bottom=0;right=0;" vertex="1" parent="1">
          <mxGeometry x="460" y="540" width="30" height="30" as="geometry">
            <mxRectangle width="30" height="30" as="alternateBounds" />
          </mxGeometry>
        </mxCell>
        <mxCell id="F50lJ3sI_sSzMT7TP19c-86" value="                              id_profesor" style="shape=partialRectangle;overflow=hidden;connectable=0;fillColor=none;top=0;left=0;bottom=0;right=0;align=left;spacingLeft=6;" vertex="1" parent="1">
          <mxGeometry x="489.5" y="540" width="290" height="30" as="geometry">
            <mxRectangle width="220" height="30" as="alternateBounds" />
          </mxGeometry>
        </mxCell>
        <mxCell id="F50lJ3sI_sSzMT7TP19c-88" value="FK2" style="shape=partialRectangle;overflow=hidden;connectable=0;fillColor=none;top=0;left=0;bottom=0;right=0;" vertex="1" parent="1">
          <mxGeometry x="460" y="570" width="29.5" height="30" as="geometry">
            <mxRectangle width="30" height="30" as="alternateBounds" />
          </mxGeometry>
        </mxCell>
        <mxCell id="F50lJ3sI_sSzMT7TP19c-93" value="" style="endArrow=none;html=1;rounded=0;entryX=1.001;entryY=1.002;entryDx=0;entryDy=0;entryPerimeter=0;" edge="1" parent="1" target="F50lJ3sI_sSzMT7TP19c-39">
          <mxGeometry width="50" height="50" relative="1" as="geometry">
            <mxPoint x="79.85" y="770" as="sourcePoint" />
            <mxPoint x="359.85" y="770" as="targetPoint" />
          </mxGeometry>
        </mxCell>
        <mxCell id="F50lJ3sI_sSzMT7TP19c-94" value="PROFESORES" style="shape=table;startSize=30;container=1;collapsible=1;childLayout=tableLayout;fixedRows=1;rowLines=0;fontStyle=1;align=center;resizeLast=1;fillColor=#e51400;fontColor=#ffffff;strokeColor=#B20000;" vertex="1" parent="1">
          <mxGeometry x="160" y="215" width="250" height="120" as="geometry" />
        </mxCell>
        <mxCell id="F50lJ3sI_sSzMT7TP19c-95" value="" style="shape=partialRectangle;collapsible=0;dropTarget=0;pointerEvents=0;fillColor=none;points=[[0,0.5],[1,0.5]];portConstraint=eastwest;top=0;left=0;right=0;bottom=1;" vertex="1" parent="F50lJ3sI_sSzMT7TP19c-94">
          <mxGeometry y="30" width="250" height="30" as="geometry" />
        </mxCell>
        <mxCell id="F50lJ3sI_sSzMT7TP19c-96" value="PK" style="shape=partialRectangle;overflow=hidden;connectable=0;fillColor=none;top=0;left=0;bottom=0;right=0;fontStyle=1;" vertex="1" parent="F50lJ3sI_sSzMT7TP19c-95">
          <mxGeometry width="30" height="30" as="geometry">
            <mxRectangle width="30" height="30" as="alternateBounds" />
          </mxGeometry>
        </mxCell>
        <mxCell id="F50lJ3sI_sSzMT7TP19c-97" value="   id_profesor INT PRIMARY KEY" style="shape=partialRectangle;overflow=hidden;connectable=0;fillColor=none;top=0;left=0;bottom=0;right=0;align=left;spacingLeft=6;fontStyle=1;" vertex="1" parent="F50lJ3sI_sSzMT7TP19c-95">
          <mxGeometry x="30" width="220" height="30" as="geometry">
            <mxRectangle width="220" height="30" as="alternateBounds" />
          </mxGeometry>
        </mxCell>
        <mxCell id="F50lJ3sI_sSzMT7TP19c-98" value="" style="shape=partialRectangle;collapsible=0;dropTarget=0;pointerEvents=0;fillColor=none;points=[[0,0.5],[1,0.5]];portConstraint=eastwest;top=0;left=0;right=0;bottom=0;" vertex="1" parent="F50lJ3sI_sSzMT7TP19c-94">
          <mxGeometry y="60" width="250" height="30" as="geometry" />
        </mxCell>
        <mxCell id="F50lJ3sI_sSzMT7TP19c-99" value="" style="shape=partialRectangle;overflow=hidden;connectable=0;fillColor=none;top=0;left=0;bottom=0;right=0;" vertex="1" parent="F50lJ3sI_sSzMT7TP19c-98">
          <mxGeometry width="30" height="30" as="geometry">
            <mxRectangle width="30" height="30" as="alternateBounds" />
          </mxGeometry>
        </mxCell>
        <mxCell id="F50lJ3sI_sSzMT7TP19c-100" value=" nombre_profesor    TEXT NOT NULL" style="shape=partialRectangle;overflow=hidden;connectable=0;fillColor=none;top=0;left=0;bottom=0;right=0;align=left;spacingLeft=6;" vertex="1" parent="F50lJ3sI_sSzMT7TP19c-98">
          <mxGeometry x="30" width="220" height="30" as="geometry">
            <mxRectangle width="220" height="30" as="alternateBounds" />
          </mxGeometry>
        </mxCell>
        <mxCell id="F50lJ3sI_sSzMT7TP19c-101" value="" style="shape=partialRectangle;collapsible=0;dropTarget=0;pointerEvents=0;fillColor=none;points=[[0,0.5],[1,0.5]];portConstraint=eastwest;top=0;left=0;right=0;bottom=0;" vertex="1" parent="F50lJ3sI_sSzMT7TP19c-94">
          <mxGeometry y="90" width="250" height="30" as="geometry" />
        </mxCell>
        <mxCell id="F50lJ3sI_sSzMT7TP19c-102" value="" style="shape=partialRectangle;overflow=hidden;connectable=0;fillColor=none;top=0;left=0;bottom=0;right=0;" vertex="1" parent="F50lJ3sI_sSzMT7TP19c-101">
          <mxGeometry width="30" height="30" as="geometry">
            <mxRectangle width="30" height="30" as="alternateBounds" />
          </mxGeometry>
        </mxCell>
        <mxCell id="F50lJ3sI_sSzMT7TP19c-103" value="    departamento     TEXT NOT NULL" style="shape=partialRectangle;overflow=hidden;connectable=0;fillColor=none;top=0;left=0;bottom=0;right=0;align=left;spacingLeft=6;" vertex="1" parent="F50lJ3sI_sSzMT7TP19c-101">
          <mxGeometry x="30" width="220" height="30" as="geometry">
            <mxRectangle width="220" height="30" as="alternateBounds" />
          </mxGeometry>
        </mxCell>
        <mxCell id="F50lJ3sI_sSzMT7TP19c-105" value="" style="endArrow=none;html=1;rounded=0;exitX=0.001;exitY=0.011;exitDx=0;exitDy=0;exitPerimeter=0;" edge="1" parent="1" source="F50lJ3sI_sSzMT7TP19c-101">
          <mxGeometry width="50" height="50" relative="1" as="geometry">
            <mxPoint x="220" y="305" as="sourcePoint" />
            <mxPoint x="410" y="305" as="targetPoint" />
          </mxGeometry>
        </mxCell>
        <mxCell id="F50lJ3sI_sSzMT7TP19c-133" value="&lt;h1 style=&quot;margin-top: 0px;&quot;&gt;Esquema Relacional Normalizado (FNBC)&lt;/h1&gt;&lt;p&gt;&lt;br&gt;&lt;/p&gt;" style="text;html=1;whiteSpace=wrap;overflow=hidden;rounded=0;" vertex="1" parent="1">
          <mxGeometry x="190" y="100" width="490" height="50" as="geometry" />
        </mxCell>
        <mxCell id="F50lJ3sI_sSzMT7TP19c-135" value="                                id_curso" style="shape=partialRectangle;overflow=hidden;connectable=0;fillColor=none;top=0;left=0;bottom=0;right=0;align=left;spacingLeft=6;" vertex="1" parent="1">
          <mxGeometry x="489.5" y="570" width="289.5" height="30" as="geometry">
            <mxRectangle width="220" height="30" as="alternateBounds" />
          </mxGeometry>
        </mxCell>
        <mxCell id="F50lJ3sI_sSzMT7TP19c-146" value="ESTUDIANTES" style="shape=table;startSize=30;container=1;collapsible=1;childLayout=tableLayout;fixedRows=1;rowLines=0;fontStyle=1;align=center;resizeLast=1;fillColor=#647687;fontColor=#ffffff;strokeColor=#314354;" vertex="1" parent="1">
          <mxGeometry x="475" y="830" width="250" height="120" as="geometry" />
        </mxCell>
        <mxCell id="F50lJ3sI_sSzMT7TP19c-147" value="" style="shape=partialRectangle;collapsible=0;dropTarget=0;pointerEvents=0;fillColor=none;points=[[0,0.5],[1,0.5]];portConstraint=eastwest;top=0;left=0;right=0;bottom=1;" vertex="1" parent="F50lJ3sI_sSzMT7TP19c-146">
          <mxGeometry y="30" width="250" height="30" as="geometry" />
        </mxCell>
        <mxCell id="F50lJ3sI_sSzMT7TP19c-148" value="PK" style="shape=partialRectangle;overflow=hidden;connectable=0;fillColor=none;top=0;left=0;bottom=0;right=0;fontStyle=1;" vertex="1" parent="F50lJ3sI_sSzMT7TP19c-147">
          <mxGeometry width="30" height="30" as="geometry">
            <mxRectangle width="30" height="30" as="alternateBounds" />
          </mxGeometry>
        </mxCell>
        <mxCell id="F50lJ3sI_sSzMT7TP19c-149" value="   id_estudiante INT PRIMARY KEY" style="shape=partialRectangle;overflow=hidden;connectable=0;fillColor=none;top=0;left=0;bottom=0;right=0;align=left;spacingLeft=6;fontStyle=1;" vertex="1" parent="F50lJ3sI_sSzMT7TP19c-147">
          <mxGeometry x="30" width="220" height="30" as="geometry">
            <mxRectangle width="220" height="30" as="alternateBounds" />
          </mxGeometry>
        </mxCell>
        <mxCell id="F50lJ3sI_sSzMT7TP19c-150" value="" style="shape=partialRectangle;collapsible=0;dropTarget=0;pointerEvents=0;fillColor=none;points=[[0,0.5],[1,0.5]];portConstraint=eastwest;top=0;left=0;right=0;bottom=0;" vertex="1" parent="F50lJ3sI_sSzMT7TP19c-146">
          <mxGeometry y="60" width="250" height="30" as="geometry" />
        </mxCell>
        <mxCell id="F50lJ3sI_sSzMT7TP19c-151" value="" style="shape=partialRectangle;overflow=hidden;connectable=0;fillColor=none;top=0;left=0;bottom=0;right=0;" vertex="1" parent="F50lJ3sI_sSzMT7TP19c-150">
          <mxGeometry width="30" height="30" as="geometry">
            <mxRectangle width="30" height="30" as="alternateBounds" />
          </mxGeometry>
        </mxCell>
        <mxCell id="F50lJ3sI_sSzMT7TP19c-152" value="nombre_estudiante  TEXT NOT NULL" style="shape=partialRectangle;overflow=hidden;connectable=0;fillColor=none;top=0;left=0;bottom=0;right=0;align=left;spacingLeft=6;" vertex="1" parent="F50lJ3sI_sSzMT7TP19c-150">
          <mxGeometry x="30" width="220" height="30" as="geometry">
            <mxRectangle width="220" height="30" as="alternateBounds" />
          </mxGeometry>
        </mxCell>
        <mxCell id="F50lJ3sI_sSzMT7TP19c-153" value="" style="shape=partialRectangle;collapsible=0;dropTarget=0;pointerEvents=0;fillColor=none;points=[[0,0.5],[1,0.5]];portConstraint=eastwest;top=0;left=0;right=0;bottom=0;" vertex="1" parent="F50lJ3sI_sSzMT7TP19c-146">
          <mxGeometry y="90" width="250" height="30" as="geometry" />
        </mxCell>
        <mxCell id="F50lJ3sI_sSzMT7TP19c-154" value="" style="shape=partialRectangle;overflow=hidden;connectable=0;fillColor=none;top=0;left=0;bottom=0;right=0;" vertex="1" parent="F50lJ3sI_sSzMT7TP19c-153">
          <mxGeometry width="30" height="30" as="geometry">
            <mxRectangle width="30" height="30" as="alternateBounds" />
          </mxGeometry>
        </mxCell>
        <mxCell id="F50lJ3sI_sSzMT7TP19c-155" value="" style="shape=partialRectangle;overflow=hidden;connectable=0;fillColor=none;top=0;left=0;bottom=0;right=0;align=left;spacingLeft=6;" vertex="1" parent="F50lJ3sI_sSzMT7TP19c-153">
          <mxGeometry x="30" width="220" height="30" as="geometry">
            <mxRectangle width="220" height="30" as="alternateBounds" />
          </mxGeometry>
        </mxCell>
        <mxCell id="F50lJ3sI_sSzMT7TP19c-156" value="" style="endArrow=none;html=1;rounded=0;exitX=0.001;exitY=0.011;exitDx=0;exitDy=0;exitPerimeter=0;" edge="1" parent="1" source="F50lJ3sI_sSzMT7TP19c-153">
          <mxGeometry width="50" height="50" relative="1" as="geometry">
            <mxPoint x="535" y="920" as="sourcePoint" />
            <mxPoint x="725" y="920" as="targetPoint" />
          </mxGeometry>
        </mxCell>
        <mxCell id="F50lJ3sI_sSzMT7TP19c-157" value="                            id_curso INT" style="shape=partialRectangle;overflow=hidden;connectable=0;fillColor=none;top=0;left=0;bottom=0;right=0;align=left;spacingLeft=6;" vertex="1" parent="1">
          <mxGeometry x="490" y="480" width="289.5" height="30" as="geometry">
            <mxRectangle width="289.5" height="30" as="alternateBounds" />
          </mxGeometry>
        </mxCell>
        <mxCell id="F50lJ3sI_sSzMT7TP19c-168" value="" style="shape=partialRectangle;collapsible=0;dropTarget=0;pointerEvents=0;fillColor=none;points=[[0,0.5],[1,0.5]];portConstraint=eastwest;top=0;left=0;right=0;bottom=0;" vertex="1" parent="1">
          <mxGeometry x="79.85" y="680" width="310" height="30" as="geometry" />
        </mxCell>
        <mxCell id="F50lJ3sI_sSzMT7TP19c-169" value="" style="shape=partialRectangle;overflow=hidden;connectable=0;fillColor=none;top=0;left=0;bottom=0;right=0;" vertex="1" parent="F50lJ3sI_sSzMT7TP19c-168">
          <mxGeometry width="30" height="30" as="geometry">
            <mxRectangle width="30" height="30" as="alternateBounds" />
          </mxGeometry>
        </mxCell>
        <mxCell id="F50lJ3sI_sSzMT7TP19c-170" value="                        id_curso INT" style="shape=partialRectangle;overflow=hidden;connectable=0;fillColor=none;top=0;left=0;bottom=0;right=0;align=left;spacingLeft=6;" vertex="1" parent="F50lJ3sI_sSzMT7TP19c-168">
          <mxGeometry x="30" width="280" height="30" as="geometry">
            <mxRectangle width="280" height="30" as="alternateBounds" />
          </mxGeometry>
        </mxCell>
        <mxCell id="F50lJ3sI_sSzMT7TP19c-171" value="PK" style="shape=partialRectangle;overflow=hidden;connectable=0;fillColor=none;top=0;left=0;bottom=0;right=0;fontStyle=1;" vertex="1" parent="1">
          <mxGeometry x="79.85" y="770" width="30" height="30" as="geometry">
            <mxRectangle width="30" height="30" as="alternateBounds" />
          </mxGeometry>
        </mxCell>
        <mxCell id="F50lJ3sI_sSzMT7TP19c-172" value="  (id_curso, id_estudiante) INT PRIMARY KEY" style="shape=partialRectangle;overflow=hidden;connectable=0;fillColor=none;top=0;left=0;bottom=0;right=0;align=left;spacingLeft=6;fontStyle=1;" vertex="1" parent="1">
          <mxGeometry x="109.85" y="770" width="280" height="30" as="geometry">
            <mxRectangle width="280" height="30" as="alternateBounds" />
          </mxGeometry>
        </mxCell>
        <mxCell id="F50lJ3sI_sSzMT7TP19c-174" value="" style="edgeStyle=entityRelationEdgeStyle;fontSize=12;html=1;endArrow=ERmandOne;startArrow=ERmandOne;rounded=0;entryX=0;entryY=0.5;entryDx=0;entryDy=0;" edge="1" parent="1" target="F50lJ3sI_sSzMT7TP19c-71">
          <mxGeometry width="100" height="100" relative="1" as="geometry">
            <mxPoint x="360" y="520" as="sourcePoint" />
            <mxPoint x="460" y="420" as="targetPoint" />
          </mxGeometry>
        </mxCell>
        <mxCell id="F50lJ3sI_sSzMT7TP19c-175" value="" style="edgeStyle=entityRelationEdgeStyle;fontSize=12;html=1;endArrow=ERmandOne;startArrow=ERmandOne;rounded=0;entryX=0;entryY=0.5;entryDx=0;entryDy=0;exitX=1;exitY=0.5;exitDx=0;exitDy=0;" edge="1" parent="1" source="F50lJ3sI_sSzMT7TP19c-95" target="F50lJ3sI_sSzMT7TP19c-68">
          <mxGeometry width="100" height="100" relative="1" as="geometry">
            <mxPoint x="370" y="530" as="sourcePoint" />
            <mxPoint x="470" y="505" as="targetPoint" />
            <Array as="points">
              <mxPoint x="450" y="420" />
              <mxPoint x="440" y="370" />
              <mxPoint x="440" y="420" />
            </Array>
          </mxGeometry>
        </mxCell>
        <mxCell id="F50lJ3sI_sSzMT7TP19c-177" value="" style="edgeStyle=entityRelationEdgeStyle;fontSize=12;html=1;endArrow=ERmany;startArrow=ERmany;rounded=0;exitX=1;exitY=0.5;exitDx=0;exitDy=0;" edge="1" parent="1" source="F50lJ3sI_sSzMT7TP19c-168">
          <mxGeometry width="100" height="100" relative="1" as="geometry">
            <mxPoint x="10" y="620" as="sourcePoint" />
            <mxPoint x="110" y="520" as="targetPoint" />
          </mxGeometry>
        </mxCell>
        <mxCell id="F50lJ3sI_sSzMT7TP19c-178" value="" style="edgeStyle=entityRelationEdgeStyle;fontSize=12;html=1;endArrow=ERmany;startArrow=ERmany;rounded=0;exitX=1;exitY=0.5;exitDx=0;exitDy=0;" edge="1" parent="1" target="F50lJ3sI_sSzMT7TP19c-36">
          <mxGeometry width="100" height="100" relative="1" as="geometry">
            <mxPoint x="724" y="885" as="sourcePoint" />
            <mxPoint x="444" y="710" as="targetPoint" />
          </mxGeometry>
        </mxCell>
      </root>
    </mxGraphModel>
  </diagram>
</mxfile>
